<?xml version="1.0" encoding="UTF-8" standalone="no"?>
<!-- Uploaded to: SVG Repo, www.svgrepo.com, Generator: SVG Repo Mixer Tools -->

<svg
   fill="#000000"
   width="800px"
   height="800px"
   viewBox="0 0 51 51"
   version="1.1"
   id="svg2"
   sodipodi:docname="lead_time_dark.svg"
   inkscape:version="1.3.2 (091e20e, 2023-11-25, custom)"
   xml:space="preserve"
   xmlns:inkscape="http://www.inkscape.org/namespaces/inkscape"
   xmlns:sodipodi="http://sodipodi.sourceforge.net/DTD/sodipodi-0.dtd"
   xmlns="http://www.w3.org/2000/svg"
   xmlns:svg="http://www.w3.org/2000/svg"><defs
     id="defs2" /><sodipodi:namedview
     id="namedview2"
     pagecolor="#ffffff"
     bordercolor="#000000"
     borderopacity="0.25"
     inkscape:showpageshadow="2"
     inkscape:pageopacity="0.0"
     inkscape:pagecheckerboard="0"
     inkscape:deskcolor="#d1d1d1"
     inkscape:zoom="0.8275"
     inkscape:cx="397.58308"
     inkscape:cy="399.39577"
     inkscape:current-layer="g2" /><g
     id="g2"><g
       style="fill:none"
       id="g1"
       transform="matrix(2.125,0,0,2.125,-0.07661427,-0.03851964)"><path
         d="m 5.06152,12 c 0.4921,-3.94631 3.85849,-7 7.93808,-7 4.4183,0 8,3.58172 8,8 0,4.4183 -3.5817,8 -8,8 H 8 m 5,-8 V 9 M 11,3 h 4 M 3,15 h 5 m -3,3 h 5"
         stroke="#000000"
         stroke-width="2"
         stroke-linecap="round"
         stroke-linejoin="round"
         id="path1" /></g><path
       style="fill:#ffffff;stroke:#fefefe;stroke-width:2.41692;stroke-linecap:round;paint-order:stroke fill markers"
       d="m 252.56798,729.21022 c -25.14139,-11.36734 -26.01905,-46.69324 -1.45972,-58.75347 l 6.89778,-3.38726 100.90635,-0.66121 c 108.31182,-0.70973 105.70936,-0.56666 131.9396,-7.25311 84.34026,-21.49952 150.47278,-89.9357 169.40727,-175.30843 C 684.77606,373.30429 627.7583,262.0989 523.69407,217.4949 502.52805,208.42272 484.11594,203.5862 459.2145,200.55732 362.84289,188.83518 268.52265,239.13898 224.08418,325.95936 c -11.96497,23.37622 -18.58269,43.53414 -22.91853,69.81103 -2.54916,15.44891 -5.25223,21.56569 -12.25348,27.72844 -16.37951,14.41782 -40.71412,9.66945 -50.43692,-9.84168 -3.73767,-7.50053 -4.06708,-15.75937 -1.27348,-31.92786 8.09234,-46.83583 29.14205,-94.5414 58.29005,-132.10443 10.93648,-14.09385 34.6584,-38.2237 48.75298,-49.59136 50.80185,-40.97308 114.6935,-64.69987 179.75031,-66.75203 4.41598,-0.13929 -8.82895,-0.54715 -29.43318,-0.90634 l -37.46223,-0.65308 -6.187,-3.26385 c -11.2294,-5.92389 -17.81417,-16.8015 -17.77587,-29.364544 0.0122,-3.987916 0.88092,-9.257192 1.93055,-11.709503 2.86666,-6.697509 11.06613,-14.884528 17.81476,-17.787707 5.93981,-2.555238 6.7337,-2.577406 80.63692,-2.251687 83.51114,0.368064 78.95516,-0.107193 88.27028,9.207923 15.6786,15.678604 11.41333,41.321398 -8.63182,51.894428 l -6.20888,3.27494 -37.46224,0.65308 c -20.60422,0.35919 -33.88598,0.76705 -29.51502,0.90634 76.30328,2.43171 149.738,34.15573 203.491,87.90872 83.203,83.20301 109.929,206.47212 68.73948,317.04901 -5.92598,15.90881 -20.39904,44.16194 -30.09022,58.73965 -49.43239,74.35748 -127.64497,122.68384 -215.11391,132.91564 -12.72181,1.48814 -33.57964,1.82263 -112.30754,1.80103 -94.61545,-0.026 -96.8005,-0.0792 -102.12221,-2.4853 z"
       id="path2"
       transform="scale(0.06375)" /><path
       style="fill:#ffffff;stroke:#fefefe;stroke-width:2.41692;stroke-linecap:round;paint-order:stroke fill markers"
       d="M 88.738331,530.14525 C 60.896424,520.44908 58.50942,483.31454 84.883252,470.1719 l 6.225738,-3.10241 90.69928,0.0118 90.69928,0.0118 6.06762,2.8255 c 12.51955,5.82998 19.27911,16.32424 19.18143,29.77929 -0.0932,12.83334 -6.44692,22.79719 -18.60252,29.17218 l -5.43807,2.85198 -89.42598,0.27826 c -82.77529,0.25757 -89.881556,0.11961 -95.551699,-1.85506 z"
       id="path3"
       transform="scale(0.06375)" /><path
       style="fill:#ffffff;stroke:#fefefe;stroke-width:2.41692;stroke-linecap:round;paint-order:stroke fill markers"
       d="m 159.19573,631.33258 c -6.99677,-1.67771 -13.42301,-5.37722 -17.59571,-10.12966 -6.68453,-7.61327 -8.02998,-11.25876 -8.0484,-21.80715 -0.0145,-8.31754 0.43217,-10.42712 3.19858,-15.10574 4.27102,-7.22327 8.80474,-11.36858 16.11989,-14.73883 l 6.0423,-2.78383 h 90.03021 c 88.80898,0 90.10397,0.0343 95.46828,2.5279 13.16148,6.11815 19.86293,16.27361 19.86293,30.1005 0,13.82689 -6.70145,23.98235 -19.86293,30.1005 -5.34678,2.48546 -6.9088,2.53125 -93.05136,2.72767 -48.75711,0.11117 -89.63142,-0.28415 -92.16379,-0.89136 z"
       id="path4"
       transform="scale(0.06375)" /><path
       style="fill:#ffffff;stroke:#fefefe;stroke-width:2.41692;stroke-linecap:round;paint-order:stroke fill markers"
       d="M 423.85354,464.1961 C 416.9707,462.28966 410.68746,458.02825 406.51593,452.43741 399.79759,443.43326 400,446.12924 400,365.6486 v -74.53961 l 3.11511,-6.25121 c 5.68114,-11.40056 15.82129,-17.60068 28.90906,-17.67623 13.78467,-0.0796 23.9634,6.62527 30.1005,19.82751 2.47783,5.33037 2.5279,6.89805 2.5279,79.15408 0,72.25604 -0.0501,73.82371 -2.5279,79.15408 -3.71119,7.98358 -8.26961,12.78904 -15.35235,16.18435 -7.98079,3.82581 -15.6003,4.72163 -22.91878,2.69453 z"
       id="path5"
       transform="scale(0.06375)" /></g></svg>
