<?xml version="1.0" encoding="UTF-8" standalone="no"?>
<!-- Uploaded to: SVG Repo, www.svgrepo.com, Generator: SVG Repo Mixer Tools -->

<svg
   fill="#000000"
   width="800px"
   height="800px"
   viewBox="0 0 51 51"
   version="1.1"
   id="svg2"
   sodipodi:docname="change.svg"
   inkscape:version="1.3.2 (091e20e, 2023-11-25, custom)"
   xml:space="preserve"
   xmlns:inkscape="http://www.inkscape.org/namespaces/inkscape"
   xmlns:sodipodi="http://sodipodi.sourceforge.net/DTD/sodipodi-0.dtd"
   xmlns="http://www.w3.org/2000/svg"
   xmlns:svg="http://www.w3.org/2000/svg"><defs
     id="defs2" /><sodipodi:namedview
     id="namedview2"
     pagecolor="#ffffff"
     bordercolor="#000000"
     borderopacity="0.25"
     inkscape:showpageshadow="2"
     inkscape:pageopacity="0.0"
     inkscape:pagecheckerboard="0"
     inkscape:deskcolor="#d1d1d1"
     inkscape:zoom="0.8275"
     inkscape:cx="400"
     inkscape:cy="399.39577"
     inkscape:current-layer="g2" /><g
     id="g2"><polygon
       points="9.81,29 12.63,25.06 16.24,20.02 12.63,20.02 12.63,18.23 25.54,10.78 38.45,18.23 38.45,22.96 41.19,19.14    43.95,23.01 43.95,15.06 25.54,4.43 7.13,15.06 7.13,20.02 3.39,20.02 7.13,25.25  "
       id="polygon1" /><polygon
       points="43.95,25.92 41.19,22.06 38.45,25.88 34.76,31.04 38.45,31.04 38.45,33.14 25.54,40.59 12.63,33.14 12.63,28.02    9.81,31.96 7.13,28.22 7.13,36.32 25.54,46.94 43.95,36.32 43.95,31.04 47.61,31.04  "
       id="polygon2" /></g></svg>
