<?xml version="1.0" encoding="UTF-8" standalone="no"?>
<!-- Uploaded to: SVG Repo, www.svgrepo.com, Generator: SVG Repo Mixer Tools -->

<svg
   fill="#000000"
   width="800px"
   height="800px"
   viewBox="0 0 51 51"
   version="1.1"
   id="svg2"
   sodipodi:docname="change_dark.svg"
   inkscape:version="1.3.2 (091e20e, 2023-11-25, custom)"
   xml:space="preserve"
   xmlns:inkscape="http://www.inkscape.org/namespaces/inkscape"
   xmlns:sodipodi="http://sodipodi.sourceforge.net/DTD/sodipodi-0.dtd"
   xmlns="http://www.w3.org/2000/svg"
   xmlns:svg="http://www.w3.org/2000/svg"><defs
     id="defs2" /><sodipodi:namedview
     id="namedview2"
     pagecolor="#ffffff"
     bordercolor="#000000"
     borderopacity="0.25"
     inkscape:showpageshadow="2"
     inkscape:pageopacity="0.0"
     inkscape:pagecheckerboard="0"
     inkscape:deskcolor="#d1d1d1"
     inkscape:zoom="0.8275"
     inkscape:cx="398.79154"
     inkscape:cy="399.39577"
     inkscape:current-layer="g2" /><g
     id="g2"><polygon
       points="9.81,29 12.63,25.06 16.24,20.02 12.63,20.02 12.63,18.23 25.54,10.78 38.45,18.23 38.45,22.96 41.19,19.14    43.95,23.01 43.95,15.06 25.54,4.43 7.13,15.06 7.13,20.02 3.39,20.02 7.13,25.25  "
       id="polygon1" /><polygon
       points="43.95,25.92 41.19,22.06 38.45,25.88 34.76,31.04 38.45,31.04 38.45,33.14 25.54,40.59 12.63,33.14 12.63,28.02    9.81,31.96 7.13,28.22 7.13,36.32 25.54,46.94 43.95,36.32 43.95,31.04 47.61,31.04  "
       id="polygon2" /><path
       style="fill:#ffffff;stroke:#fefefe;stroke-width:2.41692;stroke-linecap:round;paint-order:stroke fill markers"
       d="M 256.47204,652.27769 112.38671,569.19233 V 507.0167 444.84108 l 3.45377,4.76979 c 1.89958,2.62339 11.17496,15.50998 20.61196,28.63686 9.437,13.12689 17.3062,23.86707 17.48711,23.86707 0.1809,0 9.8028,-13.27479 21.38199,-29.49954 l 21.05308,-29.49954 0.31871,38.45425 0.31872,38.45426 99.37916,57.33782 c 54.65855,31.53581 100.53987,57.94485 101.95849,58.68675 2.27517,1.18986 14.53014,-5.54646 103.9275,-57.12684 l 101.34818,-58.47577 0.3353,-17.02068 0.33528,-17.02068 H 575.864 c -15.63758,0 -28.43198,-0.30072 -28.43198,-0.66826 0,-0.58306 91.20948,-128.41792 96.73999,-135.58618 2.08436,-2.70159 2.42875,-2.25712 51.73262,66.76737 l 49.63428,69.48707 h -28.35858 -28.35858 v 41.41498 41.41497 l -143.37872,82.75421 c -78.85828,45.51482 -143.71777,82.89368 -144.13218,83.06413 -0.41441,0.17047 -65.59188,-37.07849 -144.83881,-82.77543 z"
       id="path1"
       transform="scale(0.06375)" /><path
       style="fill:#ffffff;stroke:#fefefe;stroke-width:2.41692;stroke-linecap:round;paint-order:stroke fill markers"
       d="M 104.76653,384.92674 C 77.718957,347.1324 55.589124,315.89338 55.589124,315.50669 c 0,-0.38669 12.779456,-0.70306 28.398791,-0.70306 H 112.38671 V 275.7934 236.78318 l 142.15267,-82.13781 c 78.18398,-45.1758 143.09736,-82.596862 144.25196,-83.157917 1.59822,-0.776627 36.4603,18.820535 146.06484,82.108037 l 143.96557,83.12812 v 60.99368 c 0,33.54653 -0.20448,60.7671 -0.4544,60.49017 -0.24992,-0.27695 -9.52055,-13.28299 -20.60139,-28.90232 -11.08085,-15.61934 -20.80084,-28.3988 -21.59998,-28.3988 -0.79914,0 -10.55356,12.70597 -21.67648,28.23548 l -20.22351,28.2355 -0.3203,-36.00986 -0.32031,-36.00985 -100.30212,-57.99339 C 448.1571,195.46784 401.93353,169.37353 400.60423,169.37685 c -1.32931,0.003 -47.55287,26.12261 -102.71903,58.04287 l -100.30212,58.03685 -0.33931,14.67353 -0.33931,14.67353 h 27.83176 c 15.30747,0 27.83176,0.22032 27.83176,0.48961 0,0.2693 -21.35753,30.31461 -47.46116,66.76738 -26.10364,36.45276 -48.29405,67.47145 -49.31202,68.93044 -1.79012,2.56562 -3.46479,0.39748 -51.02827,-66.06432 z"
       id="path2"
       transform="scale(0.06375)" /></g></svg>
