<?xml version="1.0" encoding="UTF-8" standalone="no"?>
<!-- Uploaded to: SVG Repo, www.svgrepo.com, Generator: SVG Repo Mixer Tools -->

<svg
   width="800px"
   height="800px"
   viewBox="0 0 24 24"
   version="1.1"
   id="svg1"
   xmlns="http://www.w3.org/2000/svg"
   xmlns:svg="http://www.w3.org/2000/svg">
  <defs
     id="defs1" />
  <path
     fill="none"
     stroke="#000000"
     stroke-width="2"
     d="M23,1 C23,1 16.471872,0.541707069 14,3 C13.9767216,3.03685748 10,7 10,7 L5,8 L2,10 L10,14 L14,22 L16,19 L17,14 C17,14 20.9631426,10.0232786 21,10 C23.4582929,7.5281282 23,1 23,1 Z M17,8 C16.4475,8 16,7.5525 16,7 C16,6.4475 16.4475,6 17,6 C17.5525,6 18,6.4475 18,7 C18,7.5525 17.5525,8 17,8 Z M7,17 C6,16 4,16 3,17 C2,18 2,22 2,22 C2,22 6,22 7,21 C8,20 8,18 7,17 Z"
     id="path1" />
  <path
     style="fill:#ffffff;stroke:#fefefe;stroke-width:2.41692;stroke-linecap:round;paint-order:stroke fill markers"
     d="m 33.848548,742.9003 c 0.03483,-67.50345 8.26043,-129.1346 21.930152,-164.31386 11.760508,-30.26587 32.469949,-50.02227 64.39691,-61.43341 15.29757,-5.46756 29.17738,-7.78747 46.59176,-7.78747 34.18567,0 64.23356,11.06618 86.64209,31.90896 10.85319,10.09485 18.00125,19.87059 24.44735,33.43439 17.36155,36.53189 17.36155,80.51554 0,117.04744 -13.2874,27.95913 -33.06721,44.9398 -64.56376,55.42695 -34.70774,11.55636 -89.90399,18.37561 -148.735518,18.37561 H 33.836858 Z M 138.89557,695.9749 c 30.91268,-3.58995 59.86227,-10.97404 69.01332,-17.60303 19.6,-14.19817 23.58456,-58.78276 7.36086,-82.3631 -4.9556,-7.20271 -10.1575,-11.44112 -18.89513,-15.3954 -22.91978,-10.37251 -54.68325,-7.12476 -71.07485,7.26726 -11.00213,9.66 -19.63046,46.37155 -24.25968,103.21927 l -0.67754,8.32046 11.75226,-0.85009 c 6.46374,-0.46754 18.51509,-1.63547 26.78076,-2.59537 z"
     id="path2"
     transform="scale(0.03)" />
  <path
     style="fill:#ffffff;stroke:#fefefe;stroke-width:2.41692;stroke-linecap:round;paint-order:stroke fill markers"
     d="M 385.79985,644.11044 309.36851,491.24203 155.73222,414.42199 C 71.232255,372.17097 2.5760028,337.16001 3.1627657,336.61985 3.7495286,336.0797 37.945619,313.17442 79.154079,285.71924 l 74.924471,-49.91851 81.81789,-16.38979 81.81789,-16.38979 69.84374,-69.52746 c 77.6595,-77.307835 77.7816,-77.411406 109.7229,-93.07238 53.79682,-26.376851 136.17577,-41.10791274 229.00302,-40.95048317 22.19143,0.0376353 69.4579,2.46681427 70.5273,3.62462957 1.36151,1.4740847 3.19576,43.1027536 3.19246,72.4538676 -0.013,115.693336 -19.10589,200.209476 -58.41745,258.589646 -4.41585,6.5578 -25.24878,28.28312 -75.35726,78.5852 l -69.25418,69.52174 -16.31664,81.53245 -16.31664,81.53244 -50.44873,75.80084 c -27.74681,41.69045 -50.72165,75.81576 -51.05519,75.83402 -0.33356,0.0183 -35.00057,-68.75759 -77.03781,-152.83522 z m 101.0966,0.16691 15.62748,-23.39636 16.99818,-85.06285 16.9982,-85.06285 72.57529,-72.50756 C 650.25944,337.12232 684.24173,302.173 687.61072,297.49831 716.38238,257.57584 734.7432,174.45895 734.7432,84.136137 V 64.303534 l -25.67976,0.828073 c -100.68502,3.246706 -169.34981,19.423328 -209.18842,49.282343 -4.55514,3.41408 -40.26476,38.34253 -79.35471,77.61879 l -71.07265,71.41137 -84.3915,16.76075 -84.39151,16.76075 -23.86707,15.74655 c -13.12689,8.6606 -23.86707,16.07528 -23.86707,16.47707 0,0.40179 50.48364,25.96768 112.18585,56.81308 l 112.18586,56.08255 56.39334,112.79443 c 31.01636,62.03693 56.65888,112.79443 56.98339,112.79443 0.32452,0 7.62239,-10.52837 16.2175,-23.39637 z"
     id="path3"
     transform="scale(0.03)" />
  <path
     style="fill:#ffffff;stroke:#fefefe;stroke-width:2.41692;stroke-linecap:round;paint-order:stroke fill markers"
     d="m 549.24471,296.83796 c -11.30222,-3.24771 -19.81181,-8.42624 -29.00642,-17.6519 -20.64739,-20.71711 -25.27507,-48.76713 -12.40152,-75.17003 7.23901,-14.84679 21.89915,-27.63753 38.06507,-33.21118 11.80781,-4.07106 31.3833,-3.91684 42.63602,0.33591 39.53942,14.94316 55.70086,59.92955 34.46255,95.92873 -8.60525,14.58599 -26.29219,27.30253 -42.69735,30.69852 -9.15285,1.8947 -22.6328,1.49104 -31.05835,-0.93005 z"
     id="path4"
     transform="scale(0.03)" />
</svg>
