<?xml version="1.0" encoding="UTF-8" standalone="no"?>
<!-- Uploaded to: SVG Repo, www.svgrepo.com, Generator: SVG Repo Mixer Tools -->

<svg
   version="1.1"
   id="Uploaded to svgrepo.com"
   width="800px"
   height="800px"
   viewBox="0 0 32 32"
   xml:space="preserve"
   sodipodi:docname="failure_dark.svg"
   inkscape:version="1.3.2 (091e20e, 2023-11-25, custom)"
   xmlns:inkscape="http://www.inkscape.org/namespaces/inkscape"
   xmlns:sodipodi="http://sodipodi.sourceforge.net/DTD/sodipodi-0.dtd"
   xmlns="http://www.w3.org/2000/svg"
   xmlns:svg="http://www.w3.org/2000/svg"><defs
   id="defs1" /><sodipodi:namedview
   id="namedview1"
   pagecolor="#ffffff"
   bordercolor="#000000"
   borderopacity="0.25"
   inkscape:showpageshadow="2"
   inkscape:pageopacity="0.0"
   inkscape:pagecheckerboard="0"
   inkscape:deskcolor="#d1d1d1"
   inkscape:zoom="0.8275"
   inkscape:cx="398.79154"
   inkscape:cy="399.39577"
   inkscape:current-layer="Uploaded to svgrepo.com" />
<style
   type="text/css"
   id="style1">
	.feather_een{fill:#0B1719;}
</style>
<path
   class="feather_een"
   d="m 30,14 c -1.202,0 -2.267,0.541 -3,1.38 C 26.267,14.541 25.202,14 24,14 H 23 V 11 C 23,7.686 20.314,5 17,5 H 6 C 2.686,5 0,7.686 0,11 v 11 c 0,2.761 2.239,5 5,5 h 19 c 2.761,0 5,-2.239 5,-5 V 19.859 C 30.722,19.413 32,17.862 32,16 v -1 c 0,-0.552 -0.448,-1 -1,-1 z m -7,4.617 c 0.522,0.593 1.21,1.037 2,1.242 V 21 c -1.105,0 -2,-0.895 -2,-2 z M 1,22 v -3 h 3 v 6.859 C 2.278,25.412 1,23.862 1,22 Z m 4,-3 h 3 v 7 H 5 Z m 11,7 h -3 v -7 h 1 c 1.105,0 2,0.895 2,2 z m -4,0 H 9 v -7 h 3 z M 31,16 c 0,1.359 -0.926,2.547 -2.251,2.891 L 28,19.085 V 22 c 0,2.209 -1.791,4 -4,4 h -7 v -5 c 0,-1.657 -1.343,-3 -3,-3 H 1 V 11 C 1,8.239 3.239,6 6,6 h 11 c 2.761,0 5,2.239 5,5 v 8 c 0,1.657 1.343,3 3,3 h 1 V 19.085 L 25.251,18.891 C 23.926,18.547 23,17.359 23,16 v -1 h 1 c 0.864,0 1.662,0.369 2.247,1.038 L 27,16.899 27.753,16.038 C 28.338,15.369 29.136,15 30,15 h 1 z M 6,14 c 0,0.552 -0.448,1 -1,1 -0.552,0 -1,-0.448 -1,-1 0,-0.552 0.448,-1 1,-1 0.552,0 1,0.448 1,1 z m 7,0 c 0,0.552 -0.448,1 -1,1 -0.552,0 -1,-0.448 -1,-1 0,-0.552 0.448,-1 1,-1 0.552,0 1,0.448 1,1 z"
   id="path1"
   inkscape:label="path1"
   style="display:inline;opacity:1;stroke-width:0.8;stroke-dasharray:none;fill:#ffffff;fill-opacity:1;stroke:#ffffff;stroke-opacity:1" />
</svg>
