<?xml version="1.0" encoding="UTF-8" standalone="no"?>
<!-- Uploaded to: SVG Repo, www.svgrepo.com, Generator: SVG Repo Mixer Tools -->

<svg
   width="800px"
   height="800px"
   viewBox="0 0 24 24"
   fill="none"
   version="1.1"
   id="svg2"
   xmlns="http://www.w3.org/2000/svg"
   xmlns:svg="http://www.w3.org/2000/svg">
  <defs
     id="defs2" />
  <path
     d="M18.5 9.00002H16.5M16.5 9.00002L14.5 9.00002M16.5 9.00002L16.5 7M16.5 9.00002L16.5 11"
     stroke="#1C274C"
     stroke-width="1.5"
     stroke-linecap="round"
     id="path1" />
  <path
     d="M8.96173 19.3786L9.43432 18.7963L8.96173 19.3786ZM12 5.57412L11.4522 6.08635C11.594 6.23803 11.7923 6.32412 12 6.32412C12.2077 6.32412 12.406 6.23803 12.5478 6.08635L12 5.57412ZM15.0383 19.3787L15.5109 19.961L15.0383 19.3787ZM12 21L12 20.25L12 21ZM2.65159 13.6821C2.86595 14.0366 3.32705 14.1501 3.68148 13.9358C4.03591 13.7214 4.14946 13.2603 3.9351 12.9059L2.65159 13.6821ZM6.53733 16.1707C6.24836 15.8739 5.77352 15.8676 5.47676 16.1566C5.18 16.4455 5.17369 16.9204 5.46267 17.2171L6.53733 16.1707ZM2.75 9.3175C2.75 6.41289 4.01766 4.61731 5.58602 4.00319C7.15092 3.39043 9.34039 3.82778 11.4522 6.08635L12.5478 5.06189C10.1598 2.50784 7.34924 1.70187 5.0391 2.60645C2.73242 3.50967 1.25 5.99209 1.25 9.3175H2.75ZM15.5109 19.961C17.0033 18.7499 18.7914 17.1268 20.2127 15.314C21.6196 13.5196 22.75 11.4354 22.75 9.31747H21.25C21.25 10.9289 20.3707 12.6814 19.0323 14.3884C17.7084 16.077 16.0156 17.6197 14.5657 18.7963L15.5109 19.961ZM22.75 9.31747C22.75 5.99208 21.2676 3.50966 18.9609 2.60645C16.6508 1.70187 13.8402 2.50784 11.4522 5.06189L12.5478 6.08635C14.6596 3.82778 16.8491 3.39042 18.414 4.00319C19.9823 4.6173 21.25 6.41287 21.25 9.31747H22.75ZM8.48914 19.961C9.76058 20.9928 10.6423 21.75 12 21.75L12 20.25C11.2771 20.25 10.8269 19.9263 9.43432 18.7963L8.48914 19.961ZM14.5657 18.7963C13.1731 19.9263 12.7229 20.25 12 20.25L12 21.75C13.3577 21.75 14.2394 20.9928 15.5109 19.961L14.5657 18.7963ZM3.9351 12.9059C3.18811 11.6708 2.75 10.455 2.75 9.3175H1.25C1.25 10.8297 1.82646 12.3179 2.65159 13.6821L3.9351 12.9059ZM9.43432 18.7963C8.51731 18.0521 7.49893 17.1582 6.53733 16.1707L5.46267 17.2171C6.47548 18.2572 7.53996 19.1908 8.48914 19.961L9.43432 18.7963Z"
     fill="#1C274C"
     id="path2" />
  <path
     style="fill:#000000;stroke:#fefefe;stroke-width:2.41692;stroke-linecap:round;paint-order:stroke fill markers"
     d="M 380.46463,722.6611 C 351.57839,717.17571 329.65159,703.43486 268.88218,652.73579 234.91815,624.4001 181.93495,574.46672 178.3041,567.3716 c -4.37971,-8.5585 -3.11187,-18.87631 3.20333,-26.06893 7.88521,-8.98076 20.12699,-11.61604 28.97523,-6.23747 2.4422,1.48453 15.49356,13.24171 29.00302,26.12708 25.68413,24.49759 55.16897,50.39107 80.75601,70.91961 45.84581,36.78222 57.33153,42.9702 79.75831,42.9702 23.43381,0 36.41847,-7.39195 89.42598,-50.90876 112.77769,-92.58548 184.65004,-180.63908 209.7301,-256.94847 7.09915,-21.60006 9.26172,-35.67926 9.25846,-60.27622 -0.0109,-81.80243 -32.61726,-145.24085 -87.98843,-171.18865 -15.98854,-7.49249 -26.08547,-9.68859 -47.61644,-10.35668 -28.89385,-0.89656 -49.07999,3.60364 -76.73716,17.10741 -24.03166,11.73359 -44.71753,26.79424 -68.27795,49.71075 -7.6435,7.43461 -15.63764,14.40143 -17.76476,15.48184 -4.97344,2.5261 -15.10419,2.52022 -20.0596,-0.0116 -2.12712,-1.0868 -10.17448,-8.084 -17.88302,-15.54932 -35.06789,-33.96141 -66.86,-53.22173 -104.2826,-63.17657 -11.31322,-3.00944 -13.95596,-3.24608 -35.78041,-3.20379 -20.36957,0.0395 -24.84045,0.4004 -32.97134,2.66175 -44.02611,12.2445 -78.64404,48.22308 -95.61279,99.37083 -8.131298,24.50962 -11.8082,48.8713 -11.946705,79.15408 -0.07605,16.62702 0.419768,23.15511 2.60059,34.24023 5.036531,25.60074 14.539485,50.18019 30.577335,79.08846 8.32572,15.00712 8.86348,16.42839 8.86348,23.42522 0,6.31883 -0.5524,8.24366 -3.64154,12.68882 -9.15605,13.17524 -28.31255,14.28926 -38.454483,2.23626 -4.645842,-5.52127 -16.071528,-26.33686 -24.133426,-43.96686 -12.842565,-28.08449 -20.87439,-56.34837 -23.945167,-84.26269 -1.502292,-13.65632 -0.823325,-44.42928 1.357272,-61.5159 3.517352,-27.56112 12.2873,-59.53877 22.370753,-81.56994 22.50974,-49.18117 60.799601,-85.56684 107.306521,-101.970055 20.05378,-7.073063 32.70334,-9.063285 57.6295,-9.067151 19.60332,-0.003 24.22544,0.392339 37.53276,3.210578 42.46202,8.992644 84.70743,31.189568 121.13528,63.647868 4.51817,4.02583 8.70668,7.31969 9.30779,7.31969 0.60111,0 4.78962,-3.30568 9.30779,-7.34595 36.55619,-32.68953 80.50856,-55.478538 123.74363,-64.160213 19.32688,-3.880869 51.54247,-3.883477 69.59318,-0.0056 86.81674,18.650886 143.78048,93.684783 153.83098,202.629623 5.12969,55.6044 -6.80927,105.76737 -38.54074,161.93353 -27.23257,48.20293 -62.8731,92.61589 -116.88475,145.65435 -33.86214,33.252 -57.83889,54.35562 -100.14375,88.14355 -33.29372,26.59094 -53.00794,38.25547 -73.71601,43.61636 -12.7606,3.30347 -34.27924,4.10585 -46.7257,1.74231 z"
     id="path3"
     transform="scale(0.03)" />
  <path
     style="fill:#ffffff;stroke:#fefefe;stroke-width:2.41692;stroke-linecap:round;paint-order:stroke fill markers"
     d="m 538.97281,388.21992 c -2.99094,-1.59884 -7.06949,-5.22159 -9.06344,-8.05055 l -3.62538,-5.14357 -0.38961,-25.27726 -0.38961,-25.27724 h -23.24019 c -22.65759,0 -23.39963,-0.0795 -29.6009,-3.16968 -17.86724,-8.90362 -17.89751,-33.70079 -0.0523,-42.80476 4.14276,-2.11348 7.19946,-2.36393 28.85101,-2.36393 h 24.21733 l 0.0265,-23.86707 c 0.0301,-27.11298 0.90642,-30.74758 9.02668,-37.44099 10.09655,-8.32242 23.90787,-7.4112 32.54321,2.14708 2.43808,2.69866 4.95242,6.27315 5.58741,7.94331 0.63499,1.67015 1.15453,13.87737 1.15453,27.12716 v 24.09051 h 24.208 c 26.81045,0 29.31753,0.51828 35.83873,7.40877 4.88813,5.16496 6.42359,9.27826 6.39864,17.1412 -0.0252,7.96013 -3.63594,14.56497 -10.66478,19.50853 l -5.22609,3.67564 -25.27726,0.38961 -25.27724,0.38961 v 23.82563 c 0,22.30958 -0.17302,24.16769 -2.71904,29.20148 -5.95914,11.78192 -20.89786,16.65571 -32.32628,10.54652 z"
     id="path4"
     transform="scale(0.03)" />
  <path
     style="fill:#ffffff;stroke:#fefefe;stroke-width:2.41692;stroke-linecap:round;paint-order:stroke fill markers"
     d="m 374.01813,720.41628 c -26.53342,-7.06873 -48.25826,-21.23767 -103.9275,-67.78152 -37.90385,-31.6906 -87.73609,-79.17817 -91.37517,-87.07585 -2.73657,-5.93899 -2.86562,-11.36586 -0.41005,-17.24286 3.70746,-8.8732 12.57041,-14.98272 21.73512,-14.98272 8.36152,0 7.88581,-0.35279 41.04708,30.44121 61.98515,57.56023 114.65139,99.6051 134.63295,107.4811 17.29943,6.81879 36.31613,5.77409 54.0904,-2.97154 34.22283,-16.83894 136.65115,-106.84132 183.60981,-161.33546 43.6089,-50.60682 71.46688,-95.5512 85.76536,-138.36858 8.76089,-26.2349 11.4627,-50.31533 9.08969,-81.01384 -5.74811,-74.36046 -35.7192,-126.98487 -86.35193,-151.62006 -16.68418,-8.11763 -24.10012,-9.73896 -48.11765,-10.51986 -23.35644,-0.75941 -34.87953,0.56164 -51.75186,5.933 -32.16958,10.24129 -61.21915,28.68046 -94.84333,60.20163 -16.57611,15.53937 -18.75097,16.88925 -27.21105,16.88925 -8.48719,0 -10.40759,-1.20798 -28.455,-17.89902 -33.35692,-30.84995 -58.0333,-46.86527 -88.60722,-57.50736 -20.69974,-7.2051 -28.55576,-8.29978 -54.92594,-7.65351 -26.83791,0.65773 -32.60307,1.94654 -52.18102,11.66515 -48.0158,23.83531 -78.416601,77.68373 -84.114322,148.99022 -3.82454,47.86381 3.477955,78.95983 31.079962,132.34692 8.60591,16.64534 10.13405,20.48198 10.13405,25.44317 0,12.1978 -10.55831,22.02528 -23.66323,22.02528 -12.323923,0 -18.05603,-5.97693 -32.335317,-33.71639 -16.68044,-32.40401 -25.908181,-58.8531 -31.035976,-88.95712 -2.421359,-14.21521 -2.608066,-18.37276 -1.980156,-44.09386 0.73183,-29.97801 2.277279,-41.91215 8.644889,-66.75686 5.235784,-20.42863 9.951037,-33.24337 18.790712,-51.06792 10.797094,-21.77153 21.401957,-36.61725 37.987888,-53.17914 19.76262,-19.73399 41.73526,-33.662741 67.37923,-42.712592 18.86845,-6.658744 27.90798,-7.966812 55.30562,-8.003019 21.64918,-0.02861 26.37363,0.324547 37.46223,2.800344 42.49105,9.487144 82.29616,30.403637 120.84593,63.501187 4.32024,3.70922 8.67069,6.74673 9.66767,6.75003 0.99698,0.003 5.07553,-2.79016 9.06344,-6.20771 44.41302,-38.06081 92.01866,-61.142306 137.06406,-66.455214 17.61621,-2.077755 46.2028,-0.643623 61.20919,3.070741 63.8658,15.807991 111.03617,62.180153 134.11226,131.842843 17.0706,51.53318 19.85099,106.73195 7.74174,153.6963 -13.23846,51.34389 -45.91509,107.95655 -96.1366,166.55786 -18.42159,21.49538 -70.25837,73.72197 -94.21933,94.92793 -31.03239,27.46429 -70.80738,59.33456 -90.46283,72.48462 -24.20563,16.19426 -40.13992,21.61101 -65.95501,22.42094 -15.71529,0.49306 -18.64447,0.2509 -28.39879,-2.34772 z"
     id="path5"
     transform="scale(0.03)" />
</svg>
